<?xml version="1.0" encoding="UTF-8" standalone="no"?>
<!DOCTYPE svg PUBLIC "-//W3C//DTD SVG 1.1//EN" "http://www.w3.org/Graphics/SVG/1.1/DTD/svg11.dtd">
<svg width="100%" height="100%" viewBox="0 0 357 357" version="1.1" xmlns="http://www.w3.org/2000/svg" style="fill-rule:evenodd;clip-rule:evenodd;stroke-linejoin:round;stroke-miterlimit:2;">
    <g transform="matrix(1,0,0,1,-242.589,-119.282)">
        <g id="Слой-1">
            <g transform="matrix(0,356.712,356.712,0,420.945,119.282)">
                <path d="M0.5,-0.5C0.776,-0.5 1,-0.276 1,-0C1,0.276 0.776,0.5 0.5,0.5C0.224,0.5 -0,0.276 -0,-0C-0,-0.276 0.224,-0.5 0.5,-0.5Z" style="fill:url(#_Linear1);fill-rule:nonzero;" />
            </g>
            <g transform="matrix(1,0,0,1,374.31,284.984)">
                <path d="M0,81.902C0,86.653 -2.651,90.901 -6.921,92.983C-8.657,93.832 -10.511,94.251 -12.351,94.251C-15.034,94.251 -17.692,93.361 -19.914,91.63L-31.759,82.397C-34.779,80.038 -36.51,76.491 -36.51,72.666L-36.51,0.801C-36.51,-3.93 -33.875,-8.17 -29.633,-10.26C-25.39,-12.349 -20.423,-11.862 -16.669,-8.987L-4.823,0.112C-1.804,2.427 0,6.087 0,9.892L0,81.902Z" style="fill:white;fill-rule:nonzero;" />
            </g>
            <g transform="matrix(1,0,0,1,440.184,365.223)">
                <path d="M0,43.983C0,47.828 -1.628,51.532 -4.465,54.146C-12.945,61.94 -16.922,62.931 -19.175,62.931L-19.312,62.931C-21.649,62.886 -25.345,61.836 -33.269,54.013C-35.921,51.391 -37.378,47.901 -37.378,44.189L-37.378,-5.162C-37.378,-12.764 -31.194,-18.948 -23.592,-18.948L-13.788,-18.948C-6.184,-18.948 0,-12.764 0,-5.162L0,43.983Z" style="fill:white;fill-rule:nonzero;" />
            </g>
            <g transform="matrix(1,0,0,1,505.074,294.215)">
                <path d="M0,63.434C0,67.263 -1.731,70.806 -4.749,73.162L-16.594,82.398C-18.817,84.129 -21.474,85.019 -24.16,85.019C-26.002,85.019 -27.854,84.6 -29.591,83.751C-33.859,81.665 -36.511,77.421 -36.511,72.67L-36.511,0.66C-36.511,-3.145 -34.707,-6.804 -31.687,-9.12L-19.842,-18.215C-16.087,-21.094 -11.121,-21.585 -6.879,-19.491C-2.635,-17.402 0,-13.162 0,-8.431L0,63.434Z" style="fill:white;fill-rule:nonzero;" />
            </g>
            <g transform="matrix(1,0,0,1,546.994,294.94)">
                <path d="M0,-58.76L-10.851,-49.789C-13.337,-47.728 -16.492,-46.593 -19.731,-46.593L-106.868,-46.593L-106.884,10.738C-106.884,18.42 -113.135,24.673 -120.819,24.673L-130.253,24.673C-137.937,24.673 -144.188,18.42 -144.188,10.738L-144.188,-46.617L-232.31,-46.593C-235.599,-46.593 -238.794,-47.76 -241.302,-49.882L-251.926,-58.853C-256.449,-62.669 -258.058,-68.729 -256.024,-74.286C-253.991,-79.842 -248.856,-83.433 -242.937,-83.433L-8.884,-83.433C-2.935,-83.433 2.212,-79.818 4.228,-74.221C6.243,-68.621 4.584,-62.553 0,-58.76" style="fill:white;fill-rule:nonzero;" />
            </g>
        </g>
    </g>
    <defs>
        <linearGradient id="_Linear1" x1="0" y1="0" x2="1" y2="0" gradientUnits="userSpaceOnUse" gradientTransform="matrix(0,1,1,0,0.500001,-0.500001)">
            <stop offset="0" style="stop-color:rgb(19,121,166);stop-opacity:1" />
            <stop offset="1" style="stop-color:rgb(69,76,139);stop-opacity:1" />
        </linearGradient>
    </defs>
</svg>