<?xml version="1.0" encoding="UTF-8" standalone="no"?>
<!DOCTYPE svg PUBLIC "-//W3C//DTD SVG 1.1//EN" "http://www.w3.org/Graphics/SVG/1.1/DTD/svg11.dtd">
<svg width="100%" height="100%" viewBox="0 0 712 136" version="1.1" xmlns="http://www.w3.org/2000/svg" style="fill-rule:evenodd;clip-rule:evenodd;stroke-linejoin:round;stroke-miterlimit:2;">
    <g transform="matrix(1,0,0,1,-55.444,-233.162)">
        <g id="Слой-1">
            <g transform="matrix(0,135.503,135.503,0,123.195,233.162)">
                <circle cx="0.5" cy="0" r="0.5" style="fill:url(#_Linear1);"/>
            </g>
            <g transform="matrix(1,0,0,1,103.648,327.175)">
                <path d="M0,-31.026L-4.5,-34.483C-5.926,-35.575 -7.812,-35.76 -9.425,-34.966C-11.036,-34.172 -12.037,-32.562 -12.037,-30.764L-12.037,-3.465C-12.037,-2.012 -11.379,-0.665 -10.232,0.232L-5.732,3.739C-4.888,4.396 -3.879,4.734 -2.859,4.734C-2.16,4.734 -1.456,4.575 -0.797,4.253C0.825,3.462 1.832,1.848 1.832,0.043L1.832,-27.311C1.832,-28.756 1.147,-30.147 0,-31.026" style="fill:white;fill-rule:nonzero;"/>
            </g>
            <g transform="matrix(1,0,0,1,152.54,331.114)">
                <path d="M0,-38.905C-1.611,-39.7 -3.498,-39.514 -4.924,-38.42L-9.424,-34.965C-10.571,-34.086 -11.256,-32.695 -11.256,-31.25L-11.256,-3.896C-11.256,-2.091 -10.249,-0.479 -8.628,0.313C-7.968,0.636 -7.264,0.795 -6.564,0.795C-5.544,0.795 -4.535,0.457 -3.691,-0.2L0.809,-3.709C1.955,-4.604 2.613,-5.95 2.613,-7.404L2.613,-34.704C2.613,-36.501 1.612,-38.111 0,-38.905" style="fill:white;fill-rule:nonzero;"/>
            </g>
            <g transform="matrix(1,0,0,1,125.266,350.492)">
                <path d="M0,-31.103L-3.724,-31.103C-6.612,-31.103 -8.961,-28.754 -8.961,-25.866L-8.961,-7.12C-8.961,-5.709 -8.407,-4.383 -7.4,-3.388C-4.39,-0.416 -2.986,-0.017 -2.098,0L-2.046,0C-1.191,0 0.32,-0.376 3.541,-3.337C4.619,-4.33 5.238,-5.737 5.238,-7.198L5.238,-25.866C5.238,-28.754 2.888,-31.103 0,-31.103" style="fill:white;fill-rule:nonzero;"/>
            </g>
            <g transform="matrix(1,0,0,1,172.683,305.762)">
                <path d="M0,-34.068C-0.765,-36.194 -2.721,-37.567 -4.981,-37.567L-93.89,-37.567C-96.138,-37.567 -98.089,-36.203 -98.861,-34.092C-99.634,-31.982 -99.023,-29.68 -97.304,-28.23L-93.269,-24.822C-92.316,-24.016 -91.102,-23.573 -89.853,-23.573L-56.378,-23.582L-56.378,-1.795C-56.378,1.123 -54.004,3.499 -51.085,3.499L-47.501,3.499C-44.582,3.499 -42.208,1.123 -42.208,-1.795L-42.202,-23.573L-9.101,-23.573C-7.871,-23.573 -6.672,-24.004 -5.728,-24.787L-1.606,-28.195C0.135,-29.636 0.766,-31.941 0,-34.068" style="fill:white;fill-rule:nonzero;"/>
            </g>
            <g transform="matrix(1,0,0,1,216.257,339.616)">
                <path d="M0,-80.552L15.551,-80.552L15.551,-50.159L42.438,-50.159L42.438,-80.552L57.936,-80.552L57.936,0L42.438,0L42.438,-35.319L15.551,-35.319L15.551,0L0,0L0,-80.552Z" style="fill-rule:nonzero;"/>
            </g>
            <g transform="matrix(1,0,0,1,335.666,317.272)">
                <path d="M0,-14.895C-0.989,-18.215 -2.936,-20.919 -5.842,-22.998C-8.751,-25.078 -12.123,-26.12 -15.964,-26.12C-20.132,-26.12 -23.789,-24.951 -26.934,-22.614C-28.908,-21.155 -30.736,-18.582 -32.417,-14.895L0,-14.895ZM14.95,-3.122L-33.075,-3.122C-32.382,1.113 -30.53,4.484 -27.518,6.981C-24.506,9.482 -20.663,10.735 -15.991,10.735C-10.404,10.735 -5.606,8.782 -1.588,4.876L11.005,10.79C7.865,15.245 4.106,18.539 -0.274,20.673C-4.655,22.808 -9.858,23.875 -15.882,23.875C-25.227,23.875 -32.839,20.927 -38.715,15.034C-44.593,9.136 -47.531,1.755 -47.531,-7.117C-47.531,-16.207 -44.602,-23.753 -38.743,-29.76C-32.884,-35.767 -25.537,-38.77 -16.702,-38.77C-7.321,-38.77 0.308,-35.767 6.186,-29.76C12.064,-23.753 15.002,-15.823 15.002,-5.969L14.95,-3.122Z" style="fill-rule:nonzero;"/>
            </g>
            <g transform="matrix(1,0,0,1,390.524,327.345)">
                <path d="M0,-35.041C-4.621,-35.041 -8.46,-33.409 -11.516,-30.139C-14.572,-26.874 -16.099,-22.686 -16.099,-17.573C-16.099,-12.427 -14.545,-8.192 -11.434,-4.868C-8.323,-1.548 -4.495,0.114 0.055,0.114C4.748,0.114 8.641,-1.518 11.733,-4.788C14.825,-8.053 16.373,-12.334 16.373,-17.628C16.373,-22.812 14.825,-27.009 11.733,-30.224C8.641,-33.434 4.731,-35.041 0,-35.041M15.715,-47.308L30.665,-47.308L30.665,12.271L15.715,12.271L15.715,5.973C12.798,8.749 9.871,10.744 6.937,11.967C4.001,13.191 0.82,13.802 -2.607,13.802C-10.301,13.802 -16.955,10.82 -22.572,4.851C-28.186,-1.118 -30.994,-8.538 -30.994,-17.409C-30.994,-26.609 -28.277,-34.147 -22.844,-40.027C-17.411,-45.903 -10.811,-48.843 -3.046,-48.843C0.527,-48.843 3.883,-48.164 7.017,-46.814C10.153,-45.464 13.053,-43.44 15.715,-40.736L15.715,-47.308Z" style="fill-rule:nonzero;"/>
            </g>
            <g transform="matrix(1,0,0,1,0,1.379)">
                <rect x="435.59" y="255.66" width="14.95" height="82.577"/>
            </g>
            <g transform="matrix(1,0,0,1,467.71,339.616)">
                <path d="M0,-81.539L14.95,-81.539L14.95,-59.579L23.821,-59.579L23.821,-46.709L14.95,-46.709L14.95,0L0,0L0,-46.709L-7.667,-46.709L-7.667,-59.579L0,-59.579L0,-81.539Z" style="fill-rule:nonzero;"/>
            </g>
            <g transform="matrix(1,0,0,1,500.779,339.616)">
                <path d="M0,-82.577L14.84,-82.577L14.84,-53.555C17.759,-56.074 20.699,-57.963 23.656,-59.225C26.613,-60.482 29.606,-61.114 32.637,-61.114C38.551,-61.114 43.533,-59.069 47.586,-54.981C51.054,-51.438 52.787,-46.237 52.787,-39.374L52.787,0L38.057,0L38.057,-26.12C38.057,-33.021 37.728,-37.695 37.072,-40.141C36.414,-42.584 35.292,-44.41 33.704,-45.617C32.116,-46.819 30.154,-47.422 27.817,-47.422C24.787,-47.422 22.186,-46.418 20.014,-44.41C17.841,-42.402 16.335,-39.665 15.496,-36.197C15.059,-34.409 14.84,-30.321 14.84,-23.93L14.84,0L0,0L0,-82.577Z" style="fill-rule:nonzero;"/>
            </g>
            <g transform="matrix(1,0,0,1,558.441,339.616)">
                <path d="M0,-80.552L44.52,-80.552L44.52,-65.438L29.844,-65.438L29.844,0L14.292,0L14.292,-65.438L0,-65.438L0,-80.552Z" style="fill-rule:nonzero;"/>
            </g>
            <g transform="matrix(1,0,0,1,641.197,318.259)">
                <path d="M0,-37.838L-10.807,-10.187L10.742,-10.187L0,-37.838ZM-7.871,-59.195L7.679,-59.195L38.66,21.357L22.724,21.357L16.422,4.762L-16.447,4.762L-23,21.357L-38.935,21.357L-7.871,-59.195Z" style="fill-rule:nonzero;"/>
            </g>
            <g transform="matrix(1,0,0,1,760.962,326.472)">
                <path d="M0,-54.264L-10.797,-43.588C-17.628,-50.818 -25.594,-54.429 -34.691,-54.429C-42.621,-54.429 -49.261,-51.801 -54.614,-46.545C-59.967,-41.289 -62.643,-34.898 -62.643,-27.381C-62.643,-19.603 -59.866,-13.014 -54.312,-7.61C-48.757,-2.206 -41.904,0.493 -33.755,0.493C-28.456,0.493 -23.987,-0.62 -20.351,-2.848C-16.715,-5.075 -13.783,-8.559 -11.554,-13.305L-34.881,-13.305L-34.881,-27.706L5.642,-27.706L5.752,-24.314C5.752,-17.266 3.925,-10.584 0.274,-4.269C-3.377,2.046 -8.103,6.863 -13.908,10.187C-19.712,13.507 -26.522,15.169 -34.333,15.169C-42.693,15.169 -50.151,13.351 -56.702,9.719C-63.255,6.087 -68.439,0.915 -72.255,-5.805C-76.07,-12.52 -77.977,-19.767 -77.977,-27.541C-77.977,-38.201 -74.455,-47.477 -67.408,-55.361C-59.049,-64.742 -48.168,-69.433 -34.771,-69.433C-27.763,-69.433 -21.209,-68.138 -15.112,-65.548C-9.966,-63.354 -4.927,-59.596 0,-54.264" style="fill-rule:nonzero;"/>
            </g>
        </g>
    </g>
    <defs>
        <linearGradient id="_Linear1" x1="0" y1="0" x2="1" y2="0" gradientUnits="userSpaceOnUse" gradientTransform="matrix(0,1,1,0,0.5,-0.5)"><stop offset="0" style="stop-color:rgb(19,121,166);stop-opacity:1"/><stop offset="1" style="stop-color:rgb(69,76,139);stop-opacity:1"/></linearGradient>
    </defs>
</svg>
