<?xml version="1.0" encoding="UTF-8" standalone="no"?>
<!DOCTYPE svg PUBLIC "-//W3C//DTD SVG 1.1//EN" "http://www.w3.org/Graphics/SVG/1.1/DTD/svg11.dtd">
<svg width="100%" height="100%" viewBox="0 0 660 394" version="1.1" xmlns="http://www.w3.org/2000/svg" style="fill-rule:evenodd;clip-rule:evenodd;stroke-linejoin:round;stroke-miterlimit:2;">
    <g transform="matrix(1,0,0,1,-91.2119,-100.98)">
        <g id="Слой-1">
            <g transform="matrix(1,0,0,1,490.824,214.739)">
                <path d="M0,-27.856L7.405,-33.98C10.534,-36.568 11.666,-40.708 10.291,-44.531C8.915,-48.351 5.402,-50.818 1.342,-50.818L-158.394,-50.818C-162.433,-50.818 -165.938,-48.367 -167.326,-44.576C-168.713,-40.782 -167.615,-36.648 -164.528,-34.043L-157.278,-27.92C-155.566,-26.472 -153.386,-25.675 -151.141,-25.675L-90.999,-25.692L-90.999,13.452C-90.999,18.695 -86.733,22.962 -81.489,22.962L-75.051,22.962C-69.806,22.962 -65.54,18.695 -65.54,13.452L-65.53,-25.675L-6.061,-25.675C-3.85,-25.675 -1.697,-26.449 0,-27.856" style="fill:white;fill-rule:nonzero;" />
            </g>
            <g transform="matrix(1,0,0,1,456.079,276.092)">
                <path d="M0,-68.156L-8.084,-61.95C-10.145,-60.368 -11.376,-57.871 -11.376,-55.274L-11.376,-6.129C-11.376,-2.886 -9.567,0.01 -6.654,1.434C-5.468,2.012 -4.204,2.299 -2.947,2.299C-1.114,2.299 0.699,1.691 2.216,0.51L10.3,-5.793C12.36,-7.401 13.541,-9.819 13.541,-12.433L13.541,-61.479C13.541,-64.707 11.743,-67.601 8.847,-69.027C5.952,-70.455 2.563,-70.121 0,-68.156" style="fill:white;fill-rule:nonzero;" />
            </g>
            <g transform="matrix(1,0,0,1,422.287,261.892)">
                <path d="M0,43.889C1.936,42.107 3.047,39.579 3.047,36.955L3.047,3.413C3.047,-1.775 -1.174,-5.995 -6.363,-5.995L-13.054,-5.995C-18.242,-5.995 -22.462,-1.775 -22.462,3.413L-22.462,37.095C-22.462,39.628 -21.468,42.01 -19.658,43.8C-14.25,49.138 -11.728,49.855 -10.133,49.884L-10.04,49.884C-8.502,49.884 -5.787,49.209 0,43.889" style="fill:white;fill-rule:nonzero;" />
            </g>
            <g transform="matrix(1,0,0,1,366.786,207.428)">
                <path d="M0,69.175C1.517,70.356 3.33,70.964 5.162,70.964C6.418,70.964 7.683,70.677 8.867,70.099C11.781,68.678 13.591,65.779 13.591,62.536L13.591,13.391C13.591,10.793 12.36,8.296 10.299,6.715L2.215,0.505C-0.348,-1.456 -3.737,-1.789 -6.633,-0.363C-9.528,1.064 -11.327,3.958 -11.327,7.186L-11.327,56.232C-11.327,58.843 -10.145,61.264 -8.084,62.873L0,69.175Z" style="fill:white;fill-rule:nonzero;" />
            </g>
            <g transform="matrix(1,0,0,1,91.2119,492.418)">
                <path d="M0,-96.168L18.566,-96.168L18.566,-59.885L50.668,-59.885L50.668,-96.168L69.169,-96.168L69.169,0L50.668,0L50.668,-42.169L18.566,-42.169L18.566,0L0,0L0,-96.168Z" style="fill:currentColor;fill-rule:nonzero;" />
            </g>
            <g transform="matrix(1,0,0,1,234.039,465.744)">
                <path d="M0,-17.782C-1.179,-21.748 -3.505,-24.973 -6.977,-27.457C-10.446,-29.941 -14.475,-31.186 -19.057,-31.186C-24.035,-31.186 -28.399,-29.789 -32.155,-26.999C-34.514,-25.257 -36.694,-22.183 -38.704,-17.782L0,-17.782ZM17.848,-3.726L-39.488,-3.726C-38.661,1.331 -36.447,5.35 -32.853,8.335C-29.256,11.322 -24.67,12.815 -19.09,12.815C-12.422,12.815 -6.691,10.482 -1.897,5.818L13.141,12.881C9.392,18.197 4.902,22.131 -0.326,24.68C-5.557,27.23 -11.767,28.505 -18.962,28.505C-30.119,28.505 -39.204,24.984 -46.221,17.947C-53.241,10.907 -56.746,2.092 -56.746,-8.499C-56.746,-19.35 -53.251,-28.363 -46.254,-35.531C-39.26,-42.703 -30.488,-46.287 -19.94,-46.287C-8.74,-46.287 0.369,-42.703 7.386,-35.531C14.402,-28.363 17.914,-18.895 17.914,-7.125L17.848,-3.726Z" style="fill:currentColor;fill-rule:nonzero;" />
            </g>
            <g transform="matrix(1,0,0,1,299.775,477.776)">
                <path d="M0,-41.844C-5.515,-41.844 -10.097,-39.894 -13.747,-35.993C-17.397,-32.09 -19.222,-27.089 -19.222,-20.988C-19.222,-14.841 -17.364,-9.788 -13.651,-5.822C-9.935,-1.856 -5.363,0.128 0.066,0.128C5.669,0.128 10.317,-1.823 14.01,-5.723C17.7,-9.623 19.548,-14.733 19.548,-21.054C19.548,-27.241 17.7,-32.255 14.01,-36.089C10.317,-39.923 5.65,-41.844 0,-41.844M18.764,-56.487L36.612,-56.487L36.612,14.642L18.764,14.642L18.764,7.125C15.282,10.435 11.787,12.824 8.282,14.283C4.777,15.742 0.982,16.474 -3.113,16.474C-12.297,16.474 -20.243,12.909 -26.947,5.784C-33.65,-1.342 -37.004,-10.2 -37.004,-20.791C-37.004,-31.777 -33.759,-40.773 -27.273,-47.793C-20.787,-54.81 -12.907,-58.318 -3.634,-58.318C0.632,-58.318 4.635,-57.511 8.38,-55.9C12.123,-54.286 15.585,-51.868 18.764,-48.643L18.764,-56.487Z" style="fill:currentColor;fill-rule:nonzero;" />
            </g>
            <g transform="matrix(1,0,0,1,0,290.974)">
                <rect x="353.807" y="102.858" width="17.848" height="98.586" style="fill:currentColor;"/>
            </g>
            <g transform="matrix(1,0,0,1,392.369,492.418)">
                <path d="M0,-97.344L17.848,-97.344L17.848,-71.129L28.439,-71.129L28.439,-55.764L17.848,-55.764L17.848,0L0,0L0,-55.764L-9.155,-55.764L-9.155,-71.129L0,-71.129L0,-97.344Z" style="fill:currentColor;fill-rule:nonzero;" />
            </g>
            <g transform="matrix(1,0,0,1,432.068,492.418)">
                <path d="M0,-98.586L17.716,-98.586L17.716,-63.937C21.202,-66.945 24.71,-69.202 28.241,-70.704C31.773,-72.209 35.344,-72.96 38.964,-72.96C46.023,-72.96 51.973,-70.519 56.812,-65.637C60.95,-61.411 63.022,-55.198 63.022,-47.005L63.022,0L45.434,0L45.434,-31.183C45.434,-39.422 45.042,-44.999 44.258,-47.921C43.474,-50.84 42.133,-53.02 40.239,-54.46C38.341,-55.896 35.999,-56.614 33.209,-56.614C29.592,-56.614 26.486,-55.415 23.893,-53.02C21.3,-50.622 19.502,-47.354 18.5,-43.214C17.977,-41.079 17.716,-36.197 17.716,-28.571L17.716,0L0,0L0,-98.586Z" style="fill:currentColor;fill-rule:nonzero;" />
            </g>
            <g transform="matrix(1,0,0,1,501.187,492.418)">
                <path d="M0,-96.168L53.152,-96.168L53.152,-78.126L35.63,-78.126L35.63,0L17.064,0L17.064,-78.126L0,-78.126L0,-96.168Z" style="fill:currentColor;fill-rule:nonzero;" />
            </g>
            <g transform="matrix(1,0,0,1,600.297,466.921)">
                <path d="M0,-45.174L-12.903,-12.159L12.824,-12.159L0,-45.174ZM-9.398,-70.671L9.168,-70.671L46.155,25.497L27.131,25.497L19.607,5.689L-19.637,5.689L-27.457,25.497L-46.485,25.497L-9.398,-70.671Z" style="fill:currentColor;fill-rule:nonzero;" />
            </g>
            <g transform="matrix(1,0,0,1,743.618,476.728)">
                <path d="M0,-64.788L-12.89,-52.039C-21.05,-60.67 -30.557,-64.986 -41.421,-64.986C-50.886,-64.986 -58.815,-61.846 -65.206,-55.571C-71.596,-49.295 -74.792,-41.666 -74.792,-32.689C-74.792,-23.406 -71.475,-15.536 -64.843,-9.089C-58.212,-2.636 -50.033,0.589 -40.301,0.589C-33.977,0.589 -28.64,-0.742 -24.298,-3.4C-19.96,-6.059 -16.458,-10.219 -13.796,-15.889L-41.645,-15.889L-41.645,-33.081L6.733,-33.081L6.865,-29.029C6.865,-20.616 4.684,-12.641 0.326,-5.1C-4.032,2.44 -9.675,8.195 -16.606,12.158C-23.537,16.125 -31.664,18.108 -40.993,18.108C-50.975,18.108 -59.876,15.94 -67.699,11.605C-75.523,7.266 -81.71,1.09 -86.266,-6.932C-90.822,-14.95 -93.098,-23.6 -93.098,-32.884C-93.098,-45.612 -88.891,-56.681 -80.478,-66.096C-70.5,-77.296 -57.51,-82.896 -41.514,-82.896C-33.146,-82.896 -25.323,-81.351 -18.046,-78.255C-11.899,-75.642 -5.883,-71.152 0,-64.788" style="fill:currentColor;fill-rule:nonzero;" />
            </g>
            <g transform="matrix(243.448,0,0,-243.448,290.48,222.703)">
                <path d="M-0,-0C-0,-0.276 0.224,-0.5 0.5,-0.5C0.776,-0.5 1,-0.276 1,-0C1,0.276 0.776,0.5 0.5,0.5C0.224,0.5 -0,0.276 -0,-0ZM0.177,0.147L0.147,0.173C0.134,0.183 0.13,0.2 0.136,0.216C0.141,0.231 0.156,0.241 0.172,0.241L0.828,0.241C0.845,0.241 0.86,0.231 0.865,0.216C0.871,0.2 0.866,0.183 0.853,0.172L0.823,0.147C0.816,0.141 0.807,0.138 0.798,0.138L0.554,0.138L0.554,-0.023C0.554,-0.044 0.536,-0.062 0.515,-0.062L0.488,-0.062C0.467,-0.062 0.449,-0.044 0.449,-0.023L0.449,0.138L0.202,0.138C0.193,0.138 0.184,0.141 0.177,0.147ZM0.653,-0.225C0.641,-0.219 0.633,-0.207 0.633,-0.194L0.633,0.008C0.633,0.018 0.639,0.029 0.647,0.035L0.68,0.061C0.691,0.069 0.705,0.07 0.717,0.064C0.728,0.058 0.736,0.046 0.736,0.033L0.736,-0.168C0.736,-0.179 0.731,-0.189 0.723,-0.196L0.689,-0.221C0.683,-0.226 0.676,-0.229 0.668,-0.229C0.663,-0.229 0.658,-0.228 0.653,-0.225ZM0.313,-0.221L0.28,-0.196C0.272,-0.189 0.267,-0.179 0.267,-0.168L0.267,0.033C0.267,0.046 0.274,0.058 0.286,0.064C0.298,0.07 0.312,0.069 0.323,0.061L0.356,0.035C0.364,0.029 0.369,0.018 0.369,0.008L0.369,-0.194C0.369,-0.207 0.362,-0.219 0.35,-0.225C0.345,-0.228 0.34,-0.229 0.335,-0.229C0.327,-0.229 0.32,-0.226 0.313,-0.221ZM0.461,-0.341C0.453,-0.334 0.449,-0.324 0.449,-0.313L0.449,-0.175C0.449,-0.154 0.466,-0.136 0.488,-0.136L0.515,-0.136C0.537,-0.136 0.554,-0.154 0.554,-0.175L0.554,-0.313C0.554,-0.324 0.549,-0.334 0.541,-0.341C0.518,-0.363 0.506,-0.366 0.5,-0.366L0.5,-0.366C0.493,-0.366 0.483,-0.363 0.461,-0.341Z" style="fill:url(#_Linear1);fill-rule:nonzero;" />
            </g>
        </g>
    </g>
    <defs>
        <linearGradient id="_Linear1" x1="0" y1="0" x2="1" y2="0" gradientUnits="userSpaceOnUse" gradientTransform="matrix(1,0,0,-1,0,-4.21446e-07)">
            <stop offset="0" style="stop-color:rgb(19,121,166);stop-opacity:1" />
            <stop offset="1" style="stop-color:rgb(69,76,139);stop-opacity:1" />
        </linearGradient>
    </defs>
</svg>