<?xml version="1.0" encoding="iso-8859-1"?>
<!-- Generator: Adobe Illustrator 19.0.0, SVG Export Plug-In . SVG Version: 6.00 Build 0)  -->
<svg version="1.1" id="Layer_1" xmlns="http://www.w3.org/2000/svg" xmlns:xlink="http://www.w3.org/1999/xlink" x="0px" y="0px" viewBox="0 0 512 512" style="enable-background:new 0 0 512 512;" xml:space="preserve">
	<g>
		<g>
			<g>
				<path d="M450.486,0H61.513c-11.28,0-20.426,9.145-20.426,20.426v90.156c0,11.28,9.145,20.426,20.426,20.426h21.75
				c0,13.966,0,316.692,0,326.525c0,30.034,24.434,54.468,54.468,54.468h236.537c30.034,0,54.468-24.434,54.468-54.468
				c0-11.257,0-312.733,0-326.525h21.75c11.28,0,20.425-9.145,20.425-20.426V20.426C470.911,9.145,461.766,0,450.486,0z
				 M315.322,40.851h36.943v49.305h-36.943V40.851z M237.528,40.851h36.944v49.305h-36.944V40.851z M159.734,40.851h36.943v49.305
				h-36.943V40.851z M118.883,90.156c-18.952,0-17.976,0-36.944,0V40.851h36.944V90.156z M387.884,457.532
				c0,7.508-6.109,13.617-13.617,13.617H137.73c-7.508,0-13.617-6.109-13.617-13.617v-21.904h263.771V457.532z M387.884,394.776
				H124.113V207.378h263.771V394.776z M387.884,166.527H124.113v-35.52h263.771V166.527z M430.06,90.156
				c-18.967,0-17.994,0-36.944,0V40.851h36.944V90.156z" style="fill:currentColor" />
				<path d="M211.261,321.503h24.313v24.313c0,11.28,9.145,20.425,20.426,20.425c11.28,0,20.426-9.145,20.426-20.426v-24.313h24.313
				c11.28,0,20.426-9.145,20.426-20.426s-9.145-20.426-20.426-20.426h-24.313v-24.313c0-11.28-9.145-20.426-20.426-20.426
				c-11.28,0-20.426,9.145-20.426,20.426v24.313h-24.313c-11.28,0-20.426,9.145-20.426,20.426S199.979,321.503,211.261,321.503z" style="fill:currentColor" />
			</g>
		</g>
	</g>
</svg>