<svg xmlns="http://www.w3.org/2000/svg" xmlns:xlink="http://www.w3.org/1999/xlink" style="margin:auto;display:block;z-index:1;position:relative" width="1920" height="961" preserveAspectRatio="xMidYMid" viewBox="0 0 1920 961">
    <g transform="translate(960,480.5) scale(1,1) translate(-960,-480.5)">
        <path id="path0" d="M 532.1773610553802 639.238664905764
    c 0 19.262154800010336 -4.713080429789762 5.53274659149233 -10.245827021282093 5.53274659149233
    S 511.68570701281595 658.5008197057743 511.68570701281595 639.238664905764
    s 4.713080429789762 -5.53274659149233 10.245827021282093 -5.53274659149233
    S 532.1773610553802 619.9765101057537 532.1773610553802 639.238664905764
    z" fill="none" stroke="none"></path>
        <circle cx="0" cy="0" r="7.612479908394243" fill="#5a3faa">
            <animateMotion begin="-7.694796524389966s" dur="10s" repeatCount="indefinite">
                <mpath xlink:href="#path0"></mpath>
            </animateMotion>
        </circle>
        <path id="path1" d="M 1782.381517350534 361.3012783704806
    c 0 30.10982674068984 -7.36729803229645 8.64856725530453 -16.015865287600977 8.64856725530453
    S 1750.3497867753322 391.4111051111704 1750.3497867753322 361.3012783704806
    s 7.36729803229645 -8.64856725530453 16.015865287600977 -8.64856725530453
    S 1782.381517350534 331.1914516297908 1782.381517350534 361.3012783704806
    z" fill="none" stroke="none"></path>
        <circle cx="0" cy="0" r="7.465463042134308" fill="#708adc">
            <animateMotion begin="-5.554772903393623s" dur="10s" repeatCount="indefinite">
                <mpath xlink:href="#path1"></mpath>
            </animateMotion>
        </circle>
        <path id="path2" d="M 1670.027277031815 733.8651245297538
    c 0 27.443092420357342 -6.714799209236371 7.882590376060088 -14.597389585296458 7.882590376060088
    S 1640.832497861222 761.308216950111 1640.832497861222 733.8651245297538
    s 6.714799209236371 -7.882590376060088 14.597389585296458 -7.882590376060088
    S 1670.027277031815 706.4220321093965 1670.027277031815 733.8651245297538
    z" fill="none" stroke="none"></path>
        <circle cx="0" cy="0" r="4.002773819958126" fill="#e8faff">
            <animateMotion begin="-4.87346100536419s" dur="10s" repeatCount="indefinite">
                <mpath xlink:href="#path2"></mpath>
            </animateMotion>
        </circle>
        <path id="path3" d="M 1767.717586282334 746.4468426346137
    c 0 32.6861698243576 -7.997679850640687 9.388580694230374 -17.38626054487106 9.388580694230374
    S 1732.945065192592 779.1330124589714 1732.945065192592 746.4468426346137
    s 7.997679850640687 -9.388580694230374 17.38626054487106 -9.388580694230374
    S 1767.717586282334 713.7606728102561 1767.717586282334 746.4468426346137
    z" fill="none" stroke="none"></path>
        <circle cx="0" cy="0" r="7.331371929947533" fill="#e8faff">
            <animateMotion begin="-0.43130177443970075s" dur="10s" repeatCount="indefinite">
                <mpath xlink:href="#path3"></mpath>
            </animateMotion>
        </circle>
        <path id="path4" d="M 1456.0118628734156 766.7570550337475
    c 0 28.902660820569174 -7.071927647586074 8.301828108035826 -15.3737557556219 8.301828108035826
    S 1425.2643513621717 795.6597158543167 1425.2643513621717 766.7570550337475
    s 7.071927647586074 -8.301828108035826 15.3737557556219 -8.301828108035826
    S 1456.0118628734156 737.8543942131784 1456.0118628734156 766.7570550337475
    z" fill="none" stroke="none"></path>
        <circle cx="0" cy="0" r="6.911833220501822" fill="#5a3faa">
            <animateMotion begin="-7.787763823567364s" dur="10s" repeatCount="indefinite">
                <mpath xlink:href="#path4"></mpath>
            </animateMotion>
        </circle>
        <path id="path5" d="M 1661.909639861321 275.19604256812613
    c 0 36.58043275521322 -8.950531418828765 10.507145578625074 -19.457676997453838 10.507145578625074
    S 1622.9942858664135 311.77647532333935 1622.9942858664135 275.19604256812613
    s 8.950531418828765 -10.507145578625074 19.457676997453838 -10.507145578625074
    S 1661.909639861321 238.6156098129129 1661.909639861321 275.19604256812613
    z" fill="none" stroke="none"></path>
        <circle cx="0" cy="0" r="4.7394523123826495" fill="#420457">
            <animateMotion begin="-5.16358863333255s" dur="10s" repeatCount="indefinite">
                <mpath xlink:href="#path5"></mpath>
            </animateMotion>
        </circle>
        <path id="path6" d="M 1485.994317072446 457.2265678310733
    c 0 35.737677090200755 -8.744325245474652 10.26507746207894 -19.009402707553594 10.26507746207894
    S 1447.9755116573388 492.96424492127403 1447.9755116573388 457.2265678310733
    s 8.744325245474652 -10.26507746207894 19.009402707553594 -10.26507746207894
    S 1485.994317072446 421.48889074087253 1485.994317072446 457.2265678310733
    z" fill="none" stroke="none"></path>
        <circle cx="0" cy="0" r="5.888399367985906" fill="#5a3faa">
            <animateMotion begin="-4.140379225226985s" dur="10s" repeatCount="indefinite">
                <mpath xlink:href="#path6"></mpath>
            </animateMotion>
        </circle>
        <path id="path7" d="M 1305.42505135929 913.5465269126482
    c 0 19.583443133987867 -4.791693532784264 5.625031538485876 -10.416725071270141 5.625031538485876
    S 1284.5916012167497 933.1299700466361 1284.5916012167497 913.5465269126482
    s 4.791693532784264 -5.625031538485876 10.416725071270141 -5.625031538485876
    S 1305.42505135929 893.9630837786603 1305.42505135929 913.5465269126482
    z" fill="none" stroke="none"></path>
        <circle cx="0" cy="0" r="7.962086363065309" fill="#420457">
            <animateMotion begin="-3.5738325269399396s" dur="10s" repeatCount="indefinite">
                <mpath xlink:href="#path7"></mpath>
            </animateMotion>
        </circle>
        <path id="path8" d="M 582.8115514815242 86.2197802675066
    c 0 36.75678592321462 -8.993681662063151 10.55780021198718 -19.55148187405033 10.55780021198718
    S 543.7085877334237 122.97656619072121 543.7085877334237 86.2197802675066
    s 8.993681662063151 -10.55780021198718 19.55148187405033 -10.55780021198718
    S 582.8115514815242 49.46299434429197 582.8115514815242 86.2197802675066
    z" fill="none" stroke="none"></path>
        <circle cx="0" cy="0" r="7.73366759796055" fill="#e8faff">
            <animateMotion begin="-7.110856667233893s" dur="10s" repeatCount="indefinite">
                <mpath xlink:href="#path8"></mpath>
            </animateMotion>
        </circle>
        <path id="path9" d="M 135.74211377463885 214.53089480677576
    c 0 23.200920157361875 -5.676820889567266 6.664094087752879 -12.340914977320146 6.664094087752879
    S 111.06028381999855 237.73181496413764 111.06028381999855 214.53089480677576
    s 5.676820889567266 -6.664094087752879 12.340914977320146 -6.664094087752879
    S 135.74211377463885 191.32997464941388 135.74211377463885 214.53089480677576
    z" fill="none" stroke="none"></path>
        <circle cx="0" cy="0" r="5.308018856459985" fill="#708adc">
            <animateMotion begin="-4.045386686955719s" dur="10s" repeatCount="indefinite">
                <mpath xlink:href="#path9"></mpath>
            </animateMotion>
        </circle>
        <path id="path10" d="M 60.60663721650636 886.5345245695217
    c 0 30.07942173927985 -7.359858510674856 8.639833903835703 -15.999692414510559 8.639833903835703
    S 28.607252387485236 916.6139463088016 28.607252387485236 886.5345245695217
    s 7.359858510674856 -8.639833903835703 15.999692414510559 -8.639833903835703
    S 60.60663721650636 856.4551028302419 60.60663721650636 886.5345245695217
    z" fill="none" stroke="none"></path>
        <circle cx="0" cy="0" r="6.982405705054763" fill="#420457">
            <animateMotion begin="-3.3498522502188544s" dur="10s" repeatCount="indefinite">
                <mpath xlink:href="#path10"></mpath>
            </animateMotion>
        </circle>
        <path id="path11" d="M 1107.0889119444348 453.45789524179077
    c 0 36.922222449139966 -9.034160812023607 10.60531921411467 -19.63948002613828 10.60531921411467
    S 1067.8099518921583 490.3801176909307 1067.8099518921583 453.45789524179077
    s 9.034160812023607 -10.60531921411467 19.63948002613828 -10.60531921411467
    S 1107.0889119444348 416.5356727926508 1107.0889119444348 453.45789524179077
    z" fill="none" stroke="none"></path>
        <circle cx="0" cy="0" r="7.987480844623046" fill="#420457">
            <animateMotion begin="-2.419731414409987s" dur="10s" repeatCount="indefinite">
                <mpath xlink:href="#path11"></mpath>
            </animateMotion>
        </circle>
        <path id="path12" d="M 1191.9460258864922 6.353461208264265
    c 0 20.072026614829294 -4.911240554692274 5.76536934681267 -10.676609901504943 5.76536934681267
    S 1170.5928060834824 26.425487823093558 1170.5928060834824 6.353461208264265
    s 4.911240554692274 -5.76536934681267 10.676609901504943 -5.76536934681267
    S 1191.9460258864922 -13.71856540656503 1191.9460258864922 6.353461208264265
    z" fill="none" stroke="none"></path>
        <circle cx="0" cy="0" r="6.009767682198455" fill="#b0d6f9">
            <animateMotion begin="-1.5255293001696857s" dur="10s" repeatCount="indefinite">
                <mpath xlink:href="#path12"></mpath>
            </animateMotion>
        </circle>
        <path id="path13" d="M 1078.6136972667812 288.13391666531254
    c 0 21.097264014846136 -5.162096514270862 6.059852429796231 -11.221948944067092 6.059852429796231
    S 1056.1697993786472 309.2311806801587 1056.1697993786472 288.13391666531254
    s 5.162096514270862 -6.059852429796231 11.221948944067092 -6.059852429796231
    S 1078.6136972667812 267.0366526504664 1078.6136972667812 288.13391666531254
    z" fill="none" stroke="none"></path>
        <circle cx="0" cy="0" r="6.271470642931013" fill="#5a3faa">
            <animateMotion begin="-2.942572278813209s" dur="10s" repeatCount="indefinite">
                <mpath xlink:href="#path13"></mpath>
            </animateMotion>
        </circle>
        <path id="path14" d="M 1546.5058004427658 126.07702131273017
    c 0 22.70579948200855 -5.555674341342518 6.521878574619478 -12.077552915961995 6.521878574619478
    S 1522.3506946108416 148.7828207947387 1522.3506946108416 126.07702131273017
    s 5.555674341342518 -6.521878574619478 12.077552915961995 -6.521878574619478
    S 1546.5058004427658 103.37122183072162 1546.5058004427658 126.07702131273017
    z" fill="none" stroke="none"></path>
        <circle cx="0" cy="0" r="7.6970504342145505" fill="#420457">
            <animateMotion begin="-5.999128169684695s" dur="10s" repeatCount="indefinite">
                <mpath xlink:href="#path14"></mpath>
            </animateMotion>
        </circle>
        <path id="path15" d="M 1158.7283679295722 93.50797702102399
    c 0 20.985836373752004 -5.134832304215916 6.027846617992598 -11.162678922208514 6.027846617992598
    S 1136.4030100851553 114.493813394776 1136.4030100851553 93.50797702102399
    s 5.134832304215916 -6.027846617992598 11.162678922208514 -6.027846617992598
    S 1158.7283679295722 72.52214064727198 1158.7283679295722 93.50797702102399
    z" fill="none" stroke="none"></path>
        <circle cx="0" cy="0" r="7.73820866237278" fill="#420457">
            <animateMotion begin="-9.158809652907644s" dur="10s" repeatCount="indefinite">
                <mpath xlink:href="#path15"></mpath>
            </animateMotion>
        </circle>
        <path id="path16" d="M 1820.99265032063 60.937960372550585
    c 0 19.080475900809322 -4.668627082112919 5.48056222682821 -10.149189308941128 5.48056222682821
    S 1800.6942717027475 80.01843627335991 1800.6942717027475 60.937960372550585
    s 4.668627082112919 -5.48056222682821 10.149189308941128 -5.48056222682821
    S 1820.99265032063 41.85748447174126 1820.99265032063 60.937960372550585
    z" fill="none" stroke="none"></path>
        <circle cx="0" cy="0" r="7.820091179338368" fill="#420457">
            <animateMotion begin="-0.9872566408849015s" dur="10s" repeatCount="indefinite">
                <mpath xlink:href="#path16"></mpath>
            </animateMotion>
        </circle>
        <path id="path17" d="M 977.1507845749094 871.9030448217333
    c 0 27.709340254314498 -6.779944955842908 7.959065817728633 -14.739010773571541 7.959065817728633
    S 947.6727630277663 899.6123850760478 947.6727630277663 871.9030448217333
    s 6.779944955842908 -7.959065817728633 14.739010773571541 -7.959065817728633
    S 977.1507845749094 844.1937045674188 977.1507845749094 871.9030448217333
    z" fill="none" stroke="none"></path>
        <circle cx="0" cy="0" r="6.047676821117071" fill="#e8faff">
            <animateMotion begin="-8.44678127188746s" dur="10s" repeatCount="indefinite">
                <mpath xlink:href="#path17"></mpath>
            </animateMotion>
        </circle>
        <path id="path18" d="M 555.736524671088 176.4541847355683
    c 0 20.933559142972577 -5.122041066897545 6.012830817662336 -11.13487188455988 6.012830817662336
    S 533.4667809019683 197.38774387854087 533.4667809019683 176.4541847355683
    s 5.122041066897545 -6.012830817662336 11.13487188455988 -6.012830817662336
    S 555.736524671088 155.52062559259574 555.736524671088 176.4541847355683
    z" fill="none" stroke="none"></path>
        <circle cx="0" cy="0" r="6.727523402950176" fill="#5a3faa">
            <animateMotion begin="-4.6139837242298s" dur="10s" repeatCount="indefinite">
                <mpath xlink:href="#path18"></mpath>
            </animateMotion>
        </circle>
        <path id="path19" d="M 100.30807766473295 278.8630723586751
    c 0 37.00765131815624 -9.055063620399931 10.629857293512963 -19.684920913912894 10.629857293512963
    S 60.93823583690717 315.87072367683135 60.93823583690717 278.8630723586751
    s 9.055063620399931 -10.629857293512963 19.684920913912894 -10.629857293512963
    S 100.30807766473295 241.85542104051885 100.30807766473295 278.8630723586751
    z" fill="none" stroke="none"></path>
        <circle cx="0" cy="0" r="4.127910264458681" fill="#5a3faa">
            <animateMotion begin="-2.3992282083773153s" dur="10s" repeatCount="indefinite">
                <mpath xlink:href="#path19"></mpath>
            </animateMotion>
        </circle>
        <path id="path20" d="M 1227.5957160326104 881.1986532327192
    c 0 20.63507911130247 -5.049008718722944 5.927097191544327 -10.976105910267272 5.927097191544327
    S 1205.6435042120759 901.8337323440217 1205.6435042120759 881.1986532327192
    s 5.049008718722944 -5.927097191544327 10.976105910267272 -5.927097191544327
    S 1227.5957160326104 860.5635741214167 1227.5957160326104 881.1986532327192
    z" fill="none" stroke="none"></path>
        <circle cx="0" cy="0" r="7.6005188720300785" fill="#5a3faa">
            <animateMotion begin="-8.710915525294222s" dur="10s" repeatCount="indefinite">
                <mpath xlink:href="#path20"></mpath>
            </animateMotion>
        </circle>
        <path id="path21" d="M 38.758064353720556 80.21661779908521
    c 0 35.388982261041946 -8.659006297914518 10.16492043668226 -18.82392673459678 10.16492043668226
    S 1.1102108845269996 115.60560006012716 1.1102108845269996 80.21661779908521
    s 8.659006297914518 -10.16492043668226 18.82392673459678 -10.16492043668226
    S 38.758064353720556 44.82763553804327 38.758064353720556 80.21661779908521
    z" fill="none" stroke="none"></path>
        <circle cx="0" cy="0" r="4.5266561570095005" fill="#420457">
            <animateMotion begin="-8.439553744534054s" dur="10s" repeatCount="indefinite">
                <mpath xlink:href="#path21"></mpath>
            </animateMotion>
        </circle>
        <path id="path22" d="M 512.4235437459118 213.10770990564848
    c 0 33.415559238598476 -8.176147473274094 9.598086164278287 -17.77423363755238 9.598086164278287
    S 476.87507647080713 246.52326914424697 476.87507647080713 213.10770990564848
    s 8.176147473274094 -9.598086164278287 17.77423363755238 -9.598086164278287
    S 512.4235437459118 179.69215066705 512.4235437459118 213.10770990564848
    z" fill="none" stroke="none"></path>
        <circle cx="0" cy="0" r="7.652663731183264" fill="#708adc">
            <animateMotion begin="-3.971973747375226s" dur="10s" repeatCount="indefinite">
                <mpath xlink:href="#path22"></mpath>
            </animateMotion>
        </circle>
        <path id="path23" d="M 956.930113171839 260.32700295096606
    c 0 34.13642036939604 -8.352528388256477 9.805142020996735 -18.157670409253214 9.805142020996735
    S 920.6147723533326 294.4634233203621 920.6147723533326 260.32700295096606
    s 8.352528388256477 -9.805142020996735 18.157670409253214 -9.805142020996735
    S 956.930113171839 226.19058258157003 956.930113171839 260.32700295096606
    z" fill="none" stroke="none"></path>
        <circle cx="0" cy="0" r="5.757648849739439" fill="#708adc">
            <animateMotion begin="-3.116025283255597s" dur="10s" repeatCount="indefinite">
                <mpath xlink:href="#path23"></mpath>
            </animateMotion>
        </circle>
        <path id="path24" d="M 1679.9276007525798 609.7388930225612
    c 0 24.75472982029498 -6.057008360284941 7.110401118595367 -13.167409478880307 7.110401118595367
    S 1653.5927817948193 634.4936228428562 1653.5927817948193 609.7388930225612
    s 6.057008360284941 -7.110401118595367 13.167409478880307 -7.110401118595367
    S 1679.9276007525798 584.9841632022662 1679.9276007525798 609.7388930225612
    z" fill="none" stroke="none"></path>
        <circle cx="0" cy="0" r="6.195675938786361" fill="#420457">
            <animateMotion begin="-8.760077489903033s" dur="10s" repeatCount="indefinite">
                <mpath xlink:href="#path24"></mpath>
            </animateMotion>
        </circle>
        <path id="path25" d="M 516.7578766755629 304.08831777114415
    c 0 37.40322128127164 -9.151852015630293 10.743478453131216 -19.89533046876151 10.743478453131216
    S 476.9672157380399 341.49153905241576 476.9672157380399 304.08831777114415
    s 9.151852015630293 -10.743478453131216 19.89533046876151 -10.743478453131216
    S 516.7578766755629 266.68509648987254 516.7578766755629 304.08831777114415
    z" fill="none" stroke="none"></path>
        <circle cx="0" cy="0" r="5.810644249650881" fill="#b0d6f9">
            <animateMotion begin="-8.753751449583628s" dur="10s" repeatCount="indefinite">
                <mpath xlink:href="#path25"></mpath>
            </animateMotion>
        </circle>
        <path id="path26" d="M 750.2478477387892 434.71121902617733
    c 0 18.92136782078842 -4.6296963816822725 5.434860969800929 -10.0645573514832 5.434860969800929
    S 730.1187330358227 453.63258684696575 730.1187330358227 434.71121902617733
    s 4.6296963816822725 -5.434860969800929 10.0645573514832 -5.434860969800929
    S 750.2478477387892 415.7898512053889 750.2478477387892 434.71121902617733
    z" fill="none" stroke="none"></path>
        <circle cx="0" cy="0" r="7.685481486056644" fill="#420457">
            <animateMotion begin="-5.143504823837106s" dur="10s" repeatCount="indefinite">
                <mpath xlink:href="#path26"></mpath>
            </animateMotion>
        </circle>
        <path id="path27" d="M 1531.4355245917684 368.5490999659875
    c 0 24.084882678372 -5.893109591516553 6.917998216128129 -12.811107807644682 6.917998216128129
    S 1505.813308976479 392.63398264435955 1505.813308976479 368.5490999659875
    s 5.893109591516553 -6.917998216128129 12.811107807644682 -6.917998216128129
    S 1531.4355245917684 344.4642172876155 1531.4355245917684 368.5490999659875
    z" fill="none" stroke="none"></path>
        <circle cx="0" cy="0" r="4.7228579749772726" fill="#5a3faa">
            <animateMotion begin="-0.005375943641330316s" dur="10s" repeatCount="indefinite">
                <mpath xlink:href="#path27"></mpath>
            </animateMotion>
        </circle>
        <path id="path28" d="M 342.01476711928865 288.4447004535087
    c 0 30.531527888041715 -7.4704802279250995 8.769694180607727 -16.240174408532827 8.769694180607727
    S 309.534418302223 318.9762283415504 309.534418302223 288.4447004535087
    s 7.4704802279250995 -8.769694180607727 16.240174408532827 -8.769694180607727
    S 342.01476711928865 257.913172565467 342.01476711928865 288.4447004535087
    z" fill="none" stroke="none"></path>
        <circle cx="0" cy="0" r="7.261708238009983" fill="#b0d6f9">
            <animateMotion begin="-9.204720917101133s" dur="10s" repeatCount="indefinite">
                <mpath xlink:href="#path28"></mpath>
            </animateMotion>
        </circle>
        <path id="path29" d="M 1569.4319417582199 253.05090943580103
    c 0 24.618610734978827 -6.023702626643755 7.071303083451365 -13.09500571009512 7.071303083451365
    S 1543.2419303380295 277.66952017077983 1543.2419303380295 253.05090943580103
    s 6.023702626643755 -7.071303083451365 13.09500571009512 -7.071303083451365
    S 1569.4319417582199 228.4322987008222 1569.4319417582199 253.05090943580103
    z" fill="none" stroke="none"></path>
        <circle cx="0" cy="0" r="5.397349835420796" fill="#b0d6f9">
            <animateMotion begin="-0.5298928045247253s" dur="10s" repeatCount="indefinite">
                <mpath xlink:href="#path29"></mpath>
            </animateMotion>
        </circle>
    </g>
</svg>